<svg width="76" height="50" viewBox="0 0 76 50" fill="none" xmlns="http://www.w3.org/2000/svg">
<path d="M5.09341 37.2722C5.61313 37.2474 6.0256 37.4207 6.33083 37.7837C6.63606 38.1466 6.8093 38.6499 6.83405 39.2933C6.86705 39.9945 6.80105 40.5307 6.64431 40.9102L5.98435 40.9432C6.0751 40.6957 6.14109 40.4317 6.19059 40.143C6.24009 39.8543 6.24834 39.5738 6.24009 39.2933C6.21534 38.8396 6.11634 38.5014 5.93486 38.2786C5.75337 38.0559 5.50588 37.9569 5.1924 37.9651C4.98617 37.9734 4.82118 38.0229 4.69744 38.1136C4.57369 38.2044 4.4582 38.3446 4.35921 38.5426C4.26022 38.7406 4.14472 39.0376 4.02923 39.4336C3.85599 39.9863 3.64151 40.3905 3.38577 40.638C3.13004 40.8855 2.78356 41.0174 2.35459 41.0422C1.90087 41.0669 1.52964 40.9102 1.24916 40.5802C0.968679 40.2502 0.811939 39.8048 0.778942 39.2438C0.754193 38.6581 0.836688 38.1136 1.02643 37.6187L1.62864 37.8002C1.44715 38.2951 1.36465 38.7736 1.3894 39.2273C1.4059 39.5903 1.49664 39.8708 1.66163 40.0688C1.82662 40.2667 2.04936 40.3575 2.32159 40.341C2.52783 40.3327 2.69282 40.2832 2.81656 40.2007C2.9403 40.1183 3.05579 39.9863 3.15479 39.8048C3.25378 39.6233 3.36102 39.3428 3.47652 38.9716C3.66625 38.3446 3.88074 37.9074 4.12822 37.6682C4.37571 37.4289 4.68919 37.2969 5.09341 37.2722Z" fill="white"/>
<path d="M7.12268 32.174L6.75146 35.4408L0.902588 34.7644L1.28206 31.5058L1.88427 31.5718L1.58729 34.1539L3.46817 34.3684L3.74865 31.943L4.35086 32.009L4.07038 34.4344L6.22349 34.6819L6.52047 32.0998L7.12268 32.174Z" fill="white"/>
<path d="M8.83886 25.9457L8.60787 26.6881L2.93224 28.2803L2.92399 28.3133C3.49321 28.4453 4.00467 28.5855 4.46664 28.7258L7.65918 29.7239L7.46945 30.3262L1.85156 28.5608L2.08255 27.8266L7.74168 26.2344L7.74993 26.2014C7.68393 26.1849 7.45295 26.1272 7.07347 26.0282C6.694 25.9292 6.42176 25.8467 6.26502 25.7972L3.03948 24.7825L3.22922 24.1721L8.83886 25.9457Z" fill="white"/>
<path d="M9.41646 18.4056C10.2579 18.8841 10.7776 19.4781 10.9674 20.1958C11.1571 20.9052 11.0004 21.6972 10.5136 22.5551L9.70519 23.974L4.58228 21.0702L5.47322 19.5028C5.92694 18.7026 6.49615 18.2159 7.18911 18.0179C7.88206 17.8282 8.62451 17.9602 9.41646 18.4056ZM9.07823 19.0491C8.41003 18.6696 7.80782 18.5541 7.27985 18.6944C6.75188 18.8346 6.29816 19.2388 5.92694 19.8988L5.44022 20.765L9.53195 23.0831L9.94443 22.3571C10.3487 21.6477 10.4724 21.0125 10.3322 20.4598C10.1754 19.907 9.76294 19.4368 9.07823 19.0491Z" fill="white"/>
<path d="M13.0296 10.6429C12.5677 11.0966 12.3532 11.6081 12.3862 12.1773C12.4192 12.7465 12.6997 13.2992 13.2194 13.8354C13.7556 14.3881 14.3001 14.6851 14.8528 14.7346C15.4055 14.7841 15.917 14.5696 16.4037 14.1077C16.7007 13.8189 16.9811 13.4395 17.2534 12.9692L17.6658 13.3982C17.4844 13.7942 17.1709 14.1984 16.7419 14.6191C16.1232 15.2213 15.455 15.5018 14.7538 15.4606C14.0443 15.4111 13.3596 15.0399 12.6832 14.3469C12.2624 13.9097 11.9655 13.456 11.817 12.9692C11.6602 12.4825 11.652 12.0041 11.784 11.5256C11.916 11.0471 12.1965 10.6099 12.6089 10.2057C13.0544 9.7767 13.5164 9.47972 14.0031 9.31473L14.2093 9.94169C13.7391 10.0984 13.3431 10.3377 13.0296 10.6429Z" fill="white"/>
<path d="M22.9538 9.90871L22.3763 10.2799L20.8666 7.95359L18.2681 9.64473L19.7777 11.9711L19.2003 12.3423L15.9912 7.40088L16.5687 7.02965L17.9298 9.13326L20.5284 7.44212L19.1673 5.33851L19.7447 4.96729L22.9538 9.90871Z" fill="white"/>
<path d="M24.9664 8.9765L22.5493 3.6061L23.1763 3.32562L25.5934 8.69602L24.9664 8.9765Z" fill="white"/>
<path d="M32.0606 6.5842L31.3099 6.79044L26.8965 2.88019L26.8635 2.88844C27.0615 3.4329 27.2182 3.94437 27.3502 4.40634L28.2411 7.63188L27.6307 7.80512L26.0715 2.12949L26.814 1.92325L31.2192 5.817L31.2522 5.80875C31.2274 5.74275 31.1532 5.52002 31.0295 5.14879C30.9057 4.77757 30.8232 4.50534 30.7902 4.34035L29.891 1.08181L30.5097 0.908569L32.0606 6.5842Z" fill="white"/>
<path d="M37.8932 6.00669L37.027 4.19181L34.6759 4.3568L34.0902 6.27892L33.3972 6.32842L35.2946 0.265063L35.8721 0.223816L38.6026 5.95719L37.8932 6.00669ZM36.763 3.5896L35.9463 1.81596C35.8391 1.59323 35.7318 1.31274 35.6081 0.991015C35.5668 1.255 35.5008 1.54373 35.4183 1.85721L34.8574 3.72984L36.763 3.5896Z" fill="white"/>
<path d="M41.7956 6.25421L41.1109 6.18821L41.6471 0.933305L39.791 0.743568L39.8488 0.141357L44.2375 0.586828L44.1797 1.18904L42.3236 0.999301L41.7956 6.25421Z" fill="white"/>
<path d="M50.8039 5.34683C50.5316 6.24602 50.0862 6.88948 49.4757 7.26895C48.8652 7.64843 48.1475 7.71442 47.3391 7.47519C46.5059 7.22771 45.9449 6.78223 45.648 6.13878C45.351 5.49532 45.3427 4.71162 45.615 3.77943C45.8954 2.86374 46.3327 2.22028 46.9349 1.84905C47.5371 1.47783 48.2548 1.42008 49.088 1.67582C49.8964 1.91505 50.4574 2.36877 50.7544 3.02048C51.0514 3.67219 51.0761 4.44764 50.8039 5.34683ZM46.3079 3.99392C46.0769 4.76112 46.0687 5.38807 46.2749 5.87479C46.4812 6.36976 46.8936 6.70799 47.5123 6.89773C48.1393 7.08746 48.6673 7.02972 49.1045 6.73274C49.5417 6.43576 49.8799 5.90779 50.1027 5.14059C50.3337 4.38164 50.3502 3.76293 50.1439 3.26796C49.9459 2.78124 49.5335 2.44302 48.9147 2.25328C48.2878 2.06354 47.7598 2.12129 47.3144 2.41827C46.8771 2.71525 46.5389 3.24321 46.3079 3.99392Z" fill="white"/>
<path d="M56.0587 11.4843L55.4729 11.1379L56.4546 7.13688C56.4959 6.95539 56.5536 6.73266 56.6279 6.46867C56.7021 6.20469 56.7516 6.04795 56.7764 5.99846C56.5454 6.27069 56.2649 6.55942 55.9432 6.8564L52.9651 9.64472L52.3794 9.29824L54.021 3.42462L54.648 3.79585L53.6003 7.40086C53.4518 7.90408 53.2951 8.34955 53.1383 8.73728C53.4518 8.34955 53.7901 7.98658 54.1448 7.6566L56.8671 5.10751L57.4941 5.47874L56.6114 9.14975C56.5124 9.57047 56.3639 10.0324 56.1741 10.5274C56.4134 10.2222 56.7269 9.8757 57.1311 9.47148L59.7709 6.81515L60.3979 7.18638L56.0587 11.4843Z" fill="white"/>
<path d="M61.7592 16.4505L61.1982 15.9061L62.2954 10.1149L62.2706 10.0902C61.8994 10.5357 61.5447 10.9399 61.2147 11.2864L58.8966 13.7035L58.4429 13.2662L62.5181 9.01776L63.0791 9.55398L61.9901 15.3286L62.0149 15.3533C62.0644 15.2956 62.2129 15.1224 62.4686 14.8254C62.7243 14.5284 62.9141 14.3222 63.0378 14.2067L65.3807 11.7648L65.8426 12.2103L61.7592 16.4505Z" fill="white"/>
<path d="M64.7698 20.4763L69.8514 17.4982L70.1979 18.0839L65.6525 20.7485L66.9641 22.9923L66.4279 23.3058L64.7698 20.4763Z" fill="white"/>
<path d="M71.6338 28.5113C70.7428 28.8247 69.9674 28.8577 69.2992 28.5855C68.631 28.3133 68.1525 27.7853 67.8638 26.9851C67.575 26.1684 67.5998 25.4507 67.938 24.8238C68.2762 24.205 68.9032 23.7266 69.8189 23.4049C70.7181 23.0831 71.5018 23.0584 72.1535 23.3224C72.8052 23.5863 73.2837 24.1308 73.5724 24.9475C73.8611 25.7477 73.8281 26.4572 73.4816 27.0841C73.1352 27.7193 72.5165 28.1895 71.6338 28.5113ZM70.0499 24.0896C69.2992 24.3535 68.7877 24.7248 68.5155 25.1785C68.2432 25.6405 68.2102 26.1684 68.433 26.7789C68.6557 27.3893 69.0104 27.7853 69.5137 27.9668C70.0086 28.14 70.6356 28.0988 71.3945 27.8266C72.137 27.5626 72.6485 27.1996 72.9207 26.7541C73.1929 26.3004 73.2259 25.7724 73.0032 25.162C72.7804 24.5433 72.4257 24.1473 71.9225 23.9658C71.411 23.7843 70.7923 23.8256 70.0499 24.0896Z" fill="white"/>
<path d="M75.519 33.7745L75.6262 34.5004L69.4886 33.263L69.3896 32.5948L74.9085 29.6415L75.0158 30.3592L71.4438 32.2566C71.0313 32.4793 70.6271 32.6608 70.2393 32.8093C70.6848 32.8423 71.1303 32.9 71.584 32.9908L75.519 33.7745Z" fill="white"/>
<path d="M69.7444 40.044L69.8104 36.7607L75.7005 36.8762L75.6345 40.1595L75.024 40.1513L75.0735 37.5527L73.1762 37.5114L73.1267 39.9533L72.5245 39.945L72.574 37.5032L70.4043 37.4619L70.3548 40.0605L69.7444 40.044Z" fill="white"/>
<circle cx="37.5" cy="36.674" r="12.45" fill="white" stroke="black" stroke-width="0.5"/>
<circle cx="35.9999" cy="39.9127" r="6.99548" fill="black" stroke="black"/>
</svg>
