<svg width="31" height="22" viewBox="0 0 31 22" fill="none" xmlns="http://www.w3.org/2000/svg">
<path d="M25.3633 7.38632C25.6451 6.74211 25.7952 6.04806 25.8048 5.34498C25.8144 4.64191 25.6832 3.94403 25.4191 3.29238C25.155 2.64074 24.7632 2.04849 24.2668 1.5505C23.7704 1.0525 23.1794 0.658815 22.5287 0.392589C21.8779 0.126363 21.1804 -0.00702075 20.4773 0.000284641C19.7742 0.00759003 19.0797 0.155437 18.4346 0.435128C17.7894 0.714818 17.2068 1.12071 16.7208 1.62891C16.2349 2.13711 15.8555 2.73736 15.605 3.39435C15.3458 2.75247 14.9627 2.16793 14.4776 1.6741C13.9925 1.18027 13.4148 0.786835 12.7777 0.516243C12.1405 0.245651 11.4563 0.103207 10.7641 0.0970451C10.0718 0.0908836 9.3852 0.221123 8.74332 0.48033C8.10143 0.739537 7.51689 1.12264 7.02306 1.60775C6.52924 2.09286 6.13579 2.67049 5.8652 3.30766C5.5946 3.94482 5.45217 4.62904 5.446 5.32126C5.43984 6.01348 5.57009 6.70012 5.8293 7.34201C2.92009 8.04908 0.820068 10.0393 0.820068 12.3801C0.820068 15.3163 4.10689 17.6957 8.16051 17.6957C8.45721 17.6957 8.74813 17.6822 9.03712 17.6572C9.80777 19.711 12.4145 21.2195 15.5009 21.2195C18.5874 21.2195 21.1826 19.711 21.9629 17.6572C22.2519 17.6822 22.5408 17.6957 22.8395 17.6957C26.8854 17.6957 30.1799 15.3163 30.1799 12.3801C30.1818 10.0855 28.1743 8.13192 25.3633 7.38632Z" fill="#A8192E"/>
<path d="M16.5392 11.9004L19.5312 8.90838C19.5819 8.92686 19.6353 8.93663 19.6892 8.93728C19.7886 8.93728 19.8859 8.90779 19.9686 8.85253C20.0513 8.79728 20.1157 8.71875 20.1538 8.62686C20.1918 8.53498 20.2018 8.43387 20.1824 8.33633C20.163 8.23878 20.1151 8.14918 20.0448 8.07886C19.9744 8.00854 19.8848 7.96064 19.7873 7.94124C19.6898 7.92184 19.5887 7.9318 19.4968 7.96986C19.4049 8.00792 19.3264 8.07237 19.2711 8.15506C19.2158 8.23775 19.1863 8.33497 19.1863 8.43443C19.187 8.48834 19.1968 8.54176 19.2153 8.59241L16.2444 11.5633L17.8589 7.68497C17.9726 7.67768 18.0805 7.63213 18.1651 7.55572C18.2496 7.47932 18.3058 7.37656 18.3245 7.26416C18.3432 7.15176 18.3234 7.03633 18.2682 6.93665C18.213 6.83698 18.1256 6.75891 18.0204 6.71515C17.9152 6.6714 17.7983 6.66452 17.6887 6.69566C17.5791 6.72679 17.4832 6.79409 17.4167 6.88662C17.3502 6.97915 17.317 7.09145 17.3224 7.20527C17.3278 7.31909 17.3716 7.42772 17.4466 7.5135L15.8282 11.3995V7.18983C15.912 7.14901 15.9827 7.08545 16.0321 7.00642C16.0814 6.92738 16.1076 6.83605 16.1076 6.74285C16.1082 6.65309 16.0848 6.56481 16.0398 6.48715C15.9948 6.4095 15.9298 6.34532 15.8516 6.30126C15.7734 6.25721 15.6848 6.23489 15.5951 6.23662C15.5053 6.23836 15.4177 6.26408 15.3412 6.31112C15.2648 6.35817 15.2023 6.42481 15.1603 6.50415C15.1183 6.58348 15.0984 6.6726 15.1024 6.76227C15.1065 6.85193 15.1345 6.93887 15.1836 7.01406C15.2326 7.08924 15.3009 7.14993 15.3813 7.18983V11.3995L13.7706 7.5135C13.8502 7.42298 13.8941 7.30652 13.8939 7.18597C13.8945 7.0878 13.8662 6.99161 13.8128 6.90928C13.7593 6.82695 13.6829 6.76207 13.593 6.72265C13.503 6.68323 13.4036 6.671 13.3068 6.68745C13.21 6.70391 13.1201 6.74835 13.0483 6.81527C12.9765 6.88219 12.9258 6.96868 12.9025 7.06407C12.8793 7.15945 12.8844 7.25955 12.9174 7.35203C12.9504 7.44451 13.0097 7.52531 13.088 7.58447C13.1664 7.64364 13.2603 7.67857 13.3583 7.68497L14.9709 11.5633L11.9962 8.59626C12.0131 8.54527 12.0222 8.492 12.0232 8.43828C12.0232 8.33883 11.9937 8.2416 11.9384 8.15891C11.8832 8.07622 11.8046 8.01177 11.7127 7.97371C11.6209 7.93565 11.5197 7.92569 11.4222 7.94509C11.3247 7.9645 11.2351 8.01239 11.1647 8.08271C11.0944 8.15304 11.0465 8.24264 11.0271 8.34018C11.0077 8.43772 11.0177 8.53883 11.0557 8.63071C11.0938 8.7226 11.1582 8.80113 11.2409 8.85638C11.3236 8.91164 11.4209 8.94113 11.5203 8.94113C11.5749 8.94048 11.6289 8.93071 11.6802 8.91223L14.6703 11.9043C14.9747 11.8773 15.2869 11.8638 15.6048 11.8638C15.9227 11.8638 16.2348 11.8715 16.5392 11.9004Z" fill="white"/>
</svg>
