<svg width="307" height="22" viewBox="0 0 307 22" fill="none" xmlns="http://www.w3.org/2000/svg">
<line y1="10.75" x2="307" y2="10.75" stroke="white" stroke-width="0.5"/>
<path d="M163.363 7.38632C163.645 6.74211 163.795 6.04806 163.805 5.34498C163.814 4.64191 163.683 3.94403 163.419 3.29238C163.155 2.64074 162.763 2.04849 162.267 1.5505C161.77 1.0525 161.179 0.658815 160.529 0.392589C159.878 0.126363 159.18 -0.00702075 158.477 0.000284641C157.774 0.00759003 157.08 0.155437 156.435 0.435128C155.789 0.714818 155.207 1.12071 154.721 1.62891C154.235 2.13711 153.856 2.73736 153.605 3.39435C153.346 2.75247 152.963 2.16793 152.478 1.6741C151.992 1.18027 151.415 0.786835 150.778 0.516243C150.14 0.245651 149.456 0.103207 148.764 0.0970451C148.072 0.0908836 147.385 0.221123 146.743 0.48033C146.101 0.739537 145.517 1.12264 145.023 1.60775C144.529 2.09286 144.136 2.67049 143.865 3.30766C143.595 3.94482 143.452 4.62904 143.446 5.32126C143.44 6.01348 143.57 6.70012 143.829 7.34201C140.92 8.04908 138.82 10.0393 138.82 12.3801C138.82 15.3163 142.107 17.6957 146.161 17.6957C146.457 17.6957 146.748 17.6822 147.037 17.6572C147.808 19.711 150.414 21.2195 153.501 21.2195C156.587 21.2195 159.183 19.711 159.963 17.6572C160.252 17.6822 160.541 17.6957 160.839 17.6957C164.885 17.6957 168.18 15.3163 168.18 12.3801C168.182 10.0855 166.174 8.13192 163.363 7.38632Z" fill="#A8192E"/>
<path d="M154.539 11.9004L157.531 8.90837C157.582 8.92685 157.635 8.93662 157.689 8.93727C157.789 8.93727 157.886 8.90778 157.968 8.85253C158.051 8.79728 158.116 8.71874 158.154 8.62686C158.192 8.53497 158.202 8.43387 158.182 8.33632C158.163 8.23878 158.115 8.14918 158.045 8.07886C157.974 8.00853 157.885 7.96064 157.787 7.94124C157.69 7.92184 157.589 7.9318 157.497 7.96985C157.405 8.00791 157.326 8.07236 157.271 8.15506C157.216 8.23775 157.186 8.33497 157.186 8.43442C157.187 8.48834 157.197 8.54176 157.215 8.59241L154.244 11.5633L155.859 7.68496C155.972 7.67767 156.08 7.63212 156.165 7.55572C156.249 7.47932 156.306 7.37656 156.324 7.26416C156.343 7.15176 156.323 7.03633 156.268 6.93665C156.213 6.83697 156.126 6.75891 156.02 6.71515C155.915 6.67139 155.798 6.66452 155.689 6.69565C155.579 6.72678 155.483 6.79409 155.417 6.88662C155.35 6.97914 155.317 7.09145 155.322 7.20527C155.328 7.31908 155.371 7.42772 155.446 7.5135L153.828 11.3995V7.18983C153.912 7.14901 153.983 7.08545 154.032 7.00641C154.081 6.92738 154.108 6.83605 154.107 6.74285C154.108 6.65309 154.085 6.5648 154.04 6.48715C153.995 6.4095 153.93 6.34532 153.851 6.30126C153.773 6.25721 153.685 6.23489 153.595 6.23662C153.505 6.23835 153.418 6.26408 153.341 6.31112C153.265 6.35816 153.202 6.42481 153.16 6.50414C153.118 6.58347 153.098 6.6726 153.102 6.76226C153.106 6.85193 153.134 6.93887 153.183 7.01406C153.232 7.08924 153.301 7.14993 153.381 7.18983V11.3995L151.77 7.5135C151.85 7.42297 151.894 7.30651 151.894 7.18597C151.894 7.08779 151.866 6.99161 151.813 6.90928C151.759 6.82694 151.683 6.76206 151.593 6.72265C151.503 6.68323 151.403 6.67099 151.307 6.68745C151.21 6.70391 151.12 6.74834 151.048 6.81527C150.976 6.88219 150.926 6.96868 150.902 7.06406C150.879 7.15944 150.884 7.25955 150.917 7.35203C150.95 7.4445 151.01 7.52531 151.088 7.58447C151.166 7.64363 151.26 7.67857 151.358 7.68496L152.971 11.5633L149.996 8.59626C150.013 8.54526 150.022 8.492 150.023 8.43828C150.023 8.33882 149.994 8.2416 149.938 8.15891C149.883 8.07621 149.804 8.01177 149.713 7.97371C149.621 7.93565 149.52 7.92569 149.422 7.94509C149.325 7.96449 149.235 8.01238 149.165 8.08271C149.094 8.15303 149.046 8.24263 149.027 8.34017C149.008 8.43772 149.018 8.53883 149.056 8.63071C149.094 8.72259 149.158 8.80113 149.241 8.85638C149.324 8.91163 149.421 8.94113 149.52 8.94113C149.575 8.94047 149.629 8.93071 149.68 8.91223L152.67 11.9043C152.975 11.8773 153.287 11.8638 153.605 11.8638C153.923 11.8638 154.235 11.8715 154.539 11.9004Z" fill="white"/>
</svg>
